<svg width="24" height="25" viewBox="0 0 24 25" fill="none" xmlns="http://www.w3.org/2000/svg">
<path d="M9.34391 16.3502L18.9019 6.7931C19.2925 6.4026 19.9256 6.40263 20.3161 6.79317C20.7066 7.18372 20.7066 7.81688 20.3161 8.20739L10.1546 18.3678C10.1269 18.4046 10.0963 18.4399 10.0628 18.4734C9.88138 18.6548 9.64764 18.752 9.41017 18.7649C9.13169 18.7841 8.84672 18.6872 8.63385 18.4743C8.59991 18.4404 8.56892 18.4046 8.54087 18.3673L4.0266 13.9142C3.63604 13.5237 3.63598 12.8905 4.02647 12.4999C4.41696 12.1094 5.05012 12.1093 5.44068 12.4998L9.34391 16.3502Z" fill="#6168DB"/>
</svg>
